<mxfile host="app.diagrams.net" modified="2024-07-10T13:03:49.446Z" agent="Mozilla/5.0 (Macintosh; Intel Mac OS X 10_15_7) AppleWebKit/537.36 (KHTML, like Gecko) Chrome/126.0.0.0 Safari/537.36" etag="Juh3k5pbcKKk6Fky7vW6" version="24.6.4" type="device">
  <diagram name="Страница — 1" id="b61VSoaN6V-GWawvbS9K">
    <mxGraphModel dx="2554" dy="1659" grid="1" gridSize="10" guides="1" tooltips="1" connect="1" arrows="1" fold="1" page="1" pageScale="1" pageWidth="827" pageHeight="1169" math="0" shadow="0">
      <root>
        <mxCell id="0" />
        <mxCell id="1" parent="0" />
        <mxCell id="ZeBRm6sV6HHdj7Xa7d4u-1" value="Root&lt;div&gt;Priority Selector&lt;/div&gt;" style="rounded=0;whiteSpace=wrap;html=1;" vertex="1" parent="1">
          <mxGeometry x="-130" y="30" width="120" height="60" as="geometry" />
        </mxCell>
        <mxCell id="ZeBRm6sV6HHdj7Xa7d4u-2" value="Roam&lt;div&gt;Sequence&lt;/div&gt;" style="rounded=0;whiteSpace=wrap;html=1;" vertex="1" parent="1">
          <mxGeometry x="315" y="200" width="120" height="60" as="geometry" />
        </mxCell>
        <mxCell id="ZeBRm6sV6HHdj7Xa7d4u-3" value="Roam position != 0&lt;div&gt;Condition&lt;/div&gt;" style="ellipse;whiteSpace=wrap;html=1;" vertex="1" parent="1">
          <mxGeometry x="195" y="300" width="120" height="80" as="geometry" />
        </mxCell>
        <mxCell id="ZeBRm6sV6HHdj7Xa7d4u-4" value="Move to roam position&lt;div&gt;Node&lt;/div&gt;" style="rounded=0;whiteSpace=wrap;html=1;" vertex="1" parent="1">
          <mxGeometry x="445" y="310" width="120" height="60" as="geometry" />
        </mxCell>
        <mxCell id="ZeBRm6sV6HHdj7Xa7d4u-5" value="" style="endArrow=classic;html=1;rounded=0;exitX=0.5;exitY=1;exitDx=0;exitDy=0;entryX=0.5;entryY=0;entryDx=0;entryDy=0;" edge="1" parent="1" source="ZeBRm6sV6HHdj7Xa7d4u-2" target="ZeBRm6sV6HHdj7Xa7d4u-3">
          <mxGeometry width="50" height="50" relative="1" as="geometry">
            <mxPoint x="265" y="430" as="sourcePoint" />
            <mxPoint x="315" y="380" as="targetPoint" />
            <Array as="points">
              <mxPoint x="375" y="280" />
              <mxPoint x="255" y="280" />
            </Array>
          </mxGeometry>
        </mxCell>
        <mxCell id="ZeBRm6sV6HHdj7Xa7d4u-6" value="" style="endArrow=classic;html=1;rounded=0;exitX=0.5;exitY=1;exitDx=0;exitDy=0;entryX=0.5;entryY=0;entryDx=0;entryDy=0;" edge="1" parent="1" source="ZeBRm6sV6HHdj7Xa7d4u-2" target="ZeBRm6sV6HHdj7Xa7d4u-4">
          <mxGeometry width="50" height="50" relative="1" as="geometry">
            <mxPoint x="335" y="420" as="sourcePoint" />
            <mxPoint x="385" y="370" as="targetPoint" />
            <Array as="points">
              <mxPoint x="375" y="280" />
              <mxPoint x="505" y="280" />
            </Array>
          </mxGeometry>
        </mxCell>
        <mxCell id="ZeBRm6sV6HHdj7Xa7d4u-7" value="&lt;div&gt;&lt;span style=&quot;background-color: initial;&quot;&gt;DemonRanged&lt;/span&gt;&lt;/div&gt;&lt;div&gt;&lt;span style=&quot;background-color: initial;&quot;&gt;BT&lt;/span&gt;&lt;br&gt;&lt;/div&gt;" style="rounded=0;whiteSpace=wrap;html=1;" vertex="1" parent="1">
          <mxGeometry x="-130" y="-60" width="120" height="60" as="geometry" />
        </mxCell>
        <mxCell id="ZeBRm6sV6HHdj7Xa7d4u-8" value="" style="endArrow=classic;html=1;rounded=0;exitX=0.5;exitY=1;exitDx=0;exitDy=0;entryX=0.5;entryY=0;entryDx=0;entryDy=0;" edge="1" parent="1" source="ZeBRm6sV6HHdj7Xa7d4u-7" target="ZeBRm6sV6HHdj7Xa7d4u-1">
          <mxGeometry width="50" height="50" relative="1" as="geometry">
            <mxPoint x="-110" y="230" as="sourcePoint" />
            <mxPoint x="-60" y="180" as="targetPoint" />
          </mxGeometry>
        </mxCell>
        <mxCell id="ZeBRm6sV6HHdj7Xa7d4u-9" value="&lt;div&gt;Idle&lt;/div&gt;&lt;div&gt;Node&lt;/div&gt;" style="rounded=0;whiteSpace=wrap;html=1;" vertex="1" parent="1">
          <mxGeometry x="640" y="200" width="120" height="60" as="geometry" />
        </mxCell>
        <mxCell id="ZeBRm6sV6HHdj7Xa7d4u-10" value="&lt;div&gt;Roam time expired&lt;/div&gt;&lt;div&gt;Condition&lt;/div&gt;" style="ellipse;whiteSpace=wrap;html=1;" vertex="1" parent="1">
          <mxGeometry x="315" y="330" width="120" height="90" as="geometry" />
        </mxCell>
        <mxCell id="ZeBRm6sV6HHdj7Xa7d4u-11" value="" style="endArrow=classic;html=1;rounded=0;exitX=0.5;exitY=1;exitDx=0;exitDy=0;entryX=0.5;entryY=0;entryDx=0;entryDy=0;" edge="1" parent="1" source="ZeBRm6sV6HHdj7Xa7d4u-2" target="ZeBRm6sV6HHdj7Xa7d4u-12">
          <mxGeometry width="50" height="50" relative="1" as="geometry">
            <mxPoint x="355" y="400" as="sourcePoint" />
            <mxPoint x="395" y="300" as="targetPoint" />
          </mxGeometry>
        </mxCell>
        <mxCell id="ZeBRm6sV6HHdj7Xa7d4u-12" value="Invertor" style="rhombus;whiteSpace=wrap;html=1;" vertex="1" parent="1">
          <mxGeometry x="345" y="300" width="60" height="60" as="geometry" />
        </mxCell>
        <mxCell id="ZeBRm6sV6HHdj7Xa7d4u-13" value="Combat&lt;div&gt;Selector&lt;/div&gt;" style="rounded=0;whiteSpace=wrap;html=1;" vertex="1" parent="1">
          <mxGeometry x="-60" y="310" width="120" height="60" as="geometry" />
        </mxCell>
        <mxCell id="ZeBRm6sV6HHdj7Xa7d4u-14" value="Attack&lt;div&gt;Sequence&lt;/div&gt;" style="rounded=0;whiteSpace=wrap;html=1;" vertex="1" parent="1">
          <mxGeometry x="-217.5" y="460" width="120" height="60" as="geometry" />
        </mxCell>
        <mxCell id="ZeBRm6sV6HHdj7Xa7d4u-15" value="Target in attack range&lt;div&gt;Condition&lt;/div&gt;" style="ellipse;whiteSpace=wrap;html=1;" vertex="1" parent="1">
          <mxGeometry x="-337.5" y="560" width="120" height="80" as="geometry" />
        </mxCell>
        <mxCell id="ZeBRm6sV6HHdj7Xa7d4u-16" value="" style="endArrow=classic;html=1;rounded=0;entryX=0.5;entryY=0;entryDx=0;entryDy=0;exitX=0.5;exitY=1;exitDx=0;exitDy=0;" edge="1" parent="1" source="ZeBRm6sV6HHdj7Xa7d4u-14" target="ZeBRm6sV6HHdj7Xa7d4u-15">
          <mxGeometry width="50" height="50" relative="1" as="geometry">
            <mxPoint x="-217.5" y="540" as="sourcePoint" />
            <mxPoint x="-67.5" y="580" as="targetPoint" />
            <Array as="points">
              <mxPoint x="-157.5" y="540" />
              <mxPoint x="-277.5" y="540" />
            </Array>
          </mxGeometry>
        </mxCell>
        <mxCell id="ZeBRm6sV6HHdj7Xa7d4u-17" value="Attack off cooldown&lt;div&gt;Condition&lt;/div&gt;" style="ellipse;whiteSpace=wrap;html=1;" vertex="1" parent="1">
          <mxGeometry x="-202.5" y="560" width="120" height="80" as="geometry" />
        </mxCell>
        <mxCell id="ZeBRm6sV6HHdj7Xa7d4u-18" value="" style="endArrow=classic;html=1;rounded=0;entryX=0.5;entryY=0;entryDx=0;entryDy=0;" edge="1" parent="1" target="ZeBRm6sV6HHdj7Xa7d4u-17">
          <mxGeometry width="50" height="50" relative="1" as="geometry">
            <mxPoint x="-157.5" y="520" as="sourcePoint" />
            <mxPoint x="-67.5" y="580" as="targetPoint" />
            <Array as="points">
              <mxPoint x="-157.5" y="540" />
              <mxPoint x="-142.5" y="540" />
            </Array>
          </mxGeometry>
        </mxCell>
        <mxCell id="ZeBRm6sV6HHdj7Xa7d4u-19" value="Attack&lt;div&gt;Node&lt;/div&gt;" style="rounded=0;whiteSpace=wrap;html=1;" vertex="1" parent="1">
          <mxGeometry x="-62.5" y="570" width="120" height="60" as="geometry" />
        </mxCell>
        <mxCell id="ZeBRm6sV6HHdj7Xa7d4u-20" value="" style="endArrow=classic;html=1;rounded=0;exitX=0.5;exitY=1;exitDx=0;exitDy=0;entryX=0.5;entryY=0;entryDx=0;entryDy=0;" edge="1" parent="1" source="ZeBRm6sV6HHdj7Xa7d4u-14" target="ZeBRm6sV6HHdj7Xa7d4u-19">
          <mxGeometry width="50" height="50" relative="1" as="geometry">
            <mxPoint x="12.5" y="620" as="sourcePoint" />
            <mxPoint x="62.5" y="570" as="targetPoint" />
            <Array as="points">
              <mxPoint x="-157.5" y="540" />
              <mxPoint x="-2.5" y="540" />
            </Array>
          </mxGeometry>
        </mxCell>
        <mxCell id="ZeBRm6sV6HHdj7Xa7d4u-21" value="Chase&lt;div&gt;Sequence&lt;/div&gt;" style="rounded=0;whiteSpace=wrap;html=1;" vertex="1" parent="1">
          <mxGeometry x="127.5" y="460" width="120" height="60" as="geometry" />
        </mxCell>
        <mxCell id="ZeBRm6sV6HHdj7Xa7d4u-22" value="Target in chase range&lt;div&gt;Condition&lt;/div&gt;" style="ellipse;whiteSpace=wrap;html=1;" vertex="1" parent="1">
          <mxGeometry x="77.5" y="560" width="120" height="80" as="geometry" />
        </mxCell>
        <mxCell id="ZeBRm6sV6HHdj7Xa7d4u-23" value="Chase&lt;div&gt;Node&lt;/div&gt;" style="rounded=0;whiteSpace=wrap;html=1;" vertex="1" parent="1">
          <mxGeometry x="217.5" y="570" width="120" height="60" as="geometry" />
        </mxCell>
        <mxCell id="ZeBRm6sV6HHdj7Xa7d4u-24" value="" style="endArrow=classic;html=1;rounded=0;exitX=0.5;exitY=1;exitDx=0;exitDy=0;entryX=0.5;entryY=0;entryDx=0;entryDy=0;" edge="1" parent="1" source="ZeBRm6sV6HHdj7Xa7d4u-21" target="ZeBRm6sV6HHdj7Xa7d4u-22">
          <mxGeometry width="50" height="50" relative="1" as="geometry">
            <mxPoint x="137.5" y="610" as="sourcePoint" />
            <mxPoint x="187.5" y="560" as="targetPoint" />
            <Array as="points">
              <mxPoint x="187.5" y="540" />
              <mxPoint x="137.5" y="540" />
            </Array>
          </mxGeometry>
        </mxCell>
        <mxCell id="ZeBRm6sV6HHdj7Xa7d4u-25" value="" style="endArrow=classic;html=1;rounded=0;exitX=0.5;exitY=1;exitDx=0;exitDy=0;entryX=0.5;entryY=0;entryDx=0;entryDy=0;" edge="1" parent="1" source="ZeBRm6sV6HHdj7Xa7d4u-21" target="ZeBRm6sV6HHdj7Xa7d4u-23">
          <mxGeometry width="50" height="50" relative="1" as="geometry">
            <mxPoint x="237.5" y="610" as="sourcePoint" />
            <mxPoint x="287.5" y="560" as="targetPoint" />
            <Array as="points">
              <mxPoint x="187.5" y="540" />
              <mxPoint x="277.5" y="540" />
            </Array>
          </mxGeometry>
        </mxCell>
        <mxCell id="ZeBRm6sV6HHdj7Xa7d4u-26" value="Combat&lt;div&gt;Sequence&lt;/div&gt;" style="rounded=0;whiteSpace=wrap;html=1;" vertex="1" parent="1">
          <mxGeometry x="-130" y="200" width="120" height="60" as="geometry" />
        </mxCell>
        <mxCell id="ZeBRm6sV6HHdj7Xa7d4u-27" value="Target exists&lt;div&gt;Condition&lt;/div&gt;" style="ellipse;whiteSpace=wrap;html=1;" vertex="1" parent="1">
          <mxGeometry x="-210" y="300" width="120" height="80" as="geometry" />
        </mxCell>
        <mxCell id="ZeBRm6sV6HHdj7Xa7d4u-28" value="" style="endArrow=classic;html=1;rounded=0;exitX=0.5;exitY=1;exitDx=0;exitDy=0;entryX=0.5;entryY=0;entryDx=0;entryDy=0;" edge="1" parent="1" source="ZeBRm6sV6HHdj7Xa7d4u-26" target="ZeBRm6sV6HHdj7Xa7d4u-27">
          <mxGeometry width="50" height="50" relative="1" as="geometry">
            <mxPoint x="90" y="360" as="sourcePoint" />
            <mxPoint x="140" y="310" as="targetPoint" />
            <Array as="points">
              <mxPoint x="-70" y="280" />
              <mxPoint x="-150" y="280" />
            </Array>
          </mxGeometry>
        </mxCell>
        <mxCell id="ZeBRm6sV6HHdj7Xa7d4u-29" value="" style="endArrow=classic;html=1;rounded=0;exitX=0.5;exitY=1;exitDx=0;exitDy=0;entryX=0.5;entryY=0;entryDx=0;entryDy=0;" edge="1" parent="1" source="ZeBRm6sV6HHdj7Xa7d4u-26" target="ZeBRm6sV6HHdj7Xa7d4u-13">
          <mxGeometry width="50" height="50" relative="1" as="geometry">
            <mxPoint x="100" y="350" as="sourcePoint" />
            <mxPoint x="150" y="300" as="targetPoint" />
            <Array as="points">
              <mxPoint x="-70" y="280" />
              <mxPoint y="280" />
            </Array>
          </mxGeometry>
        </mxCell>
        <mxCell id="ZeBRm6sV6HHdj7Xa7d4u-30" value="" style="endArrow=classic;html=1;rounded=0;exitX=0.5;exitY=1;exitDx=0;exitDy=0;entryX=0.5;entryY=0;entryDx=0;entryDy=0;" edge="1" parent="1" source="ZeBRm6sV6HHdj7Xa7d4u-13" target="ZeBRm6sV6HHdj7Xa7d4u-14">
          <mxGeometry width="50" height="50" relative="1" as="geometry">
            <mxPoint x="70" y="480" as="sourcePoint" />
            <mxPoint x="120" y="430" as="targetPoint" />
            <Array as="points">
              <mxPoint y="400" />
              <mxPoint x="-157" y="400" />
            </Array>
          </mxGeometry>
        </mxCell>
        <mxCell id="ZeBRm6sV6HHdj7Xa7d4u-31" value="" style="endArrow=classic;html=1;rounded=0;exitX=0.5;exitY=1;exitDx=0;exitDy=0;entryX=0.5;entryY=0;entryDx=0;entryDy=0;" edge="1" parent="1" source="ZeBRm6sV6HHdj7Xa7d4u-13" target="ZeBRm6sV6HHdj7Xa7d4u-21">
          <mxGeometry width="50" height="50" relative="1" as="geometry">
            <mxPoint x="120" y="490" as="sourcePoint" />
            <mxPoint x="170" y="440" as="targetPoint" />
            <Array as="points">
              <mxPoint y="400" />
              <mxPoint x="190" y="400" />
            </Array>
          </mxGeometry>
        </mxCell>
        <mxCell id="ZeBRm6sV6HHdj7Xa7d4u-32" value="Spawn&lt;div&gt;Sequence&lt;/div&gt;" style="rounded=0;whiteSpace=wrap;html=1;" vertex="1" parent="1">
          <mxGeometry x="-1080" y="200" width="120" height="60" as="geometry" />
        </mxCell>
        <mxCell id="ZeBRm6sV6HHdj7Xa7d4u-33" value="&lt;div&gt;&lt;span style=&quot;background-color: initial;&quot;&gt;Enemy Spawned&lt;/span&gt;&lt;/div&gt;&lt;div&gt;&lt;span style=&quot;background-color: initial;&quot;&gt;Condition&lt;/span&gt;&lt;br&gt;&lt;/div&gt;" style="ellipse;whiteSpace=wrap;html=1;" vertex="1" parent="1">
          <mxGeometry x="-1180" y="320" width="120" height="90" as="geometry" />
        </mxCell>
        <mxCell id="ZeBRm6sV6HHdj7Xa7d4u-34" value="Inverter" style="rhombus;whiteSpace=wrap;html=1;" vertex="1" parent="1">
          <mxGeometry x="-1150" y="290" width="60" height="60" as="geometry" />
        </mxCell>
        <mxCell id="ZeBRm6sV6HHdj7Xa7d4u-35" value="&lt;div&gt;Idle&lt;/div&gt;&lt;div&gt;Node&lt;/div&gt;" style="rounded=0;whiteSpace=wrap;html=1;" vertex="1" parent="1">
          <mxGeometry x="-990" y="335" width="120" height="60" as="geometry" />
        </mxCell>
        <mxCell id="ZeBRm6sV6HHdj7Xa7d4u-36" value="" style="endArrow=classic;html=1;rounded=0;exitX=0.5;exitY=1;exitDx=0;exitDy=0;entryX=0.5;entryY=0;entryDx=0;entryDy=0;" edge="1" parent="1" source="ZeBRm6sV6HHdj7Xa7d4u-32" target="ZeBRm6sV6HHdj7Xa7d4u-34">
          <mxGeometry width="50" height="50" relative="1" as="geometry">
            <mxPoint x="-980" y="380" as="sourcePoint" />
            <mxPoint x="-930" y="330" as="targetPoint" />
            <Array as="points">
              <mxPoint x="-1020" y="280" />
              <mxPoint x="-1120" y="280" />
            </Array>
          </mxGeometry>
        </mxCell>
        <mxCell id="ZeBRm6sV6HHdj7Xa7d4u-37" value="" style="endArrow=classic;html=1;rounded=0;exitX=0.5;exitY=1;exitDx=0;exitDy=0;entryX=0.5;entryY=0;entryDx=0;entryDy=0;" edge="1" parent="1" source="ZeBRm6sV6HHdj7Xa7d4u-32" target="ZeBRm6sV6HHdj7Xa7d4u-35">
          <mxGeometry width="50" height="50" relative="1" as="geometry">
            <mxPoint x="-980" y="380" as="sourcePoint" />
            <mxPoint x="-920" y="300" as="targetPoint" />
            <Array as="points">
              <mxPoint x="-1020" y="280" />
              <mxPoint x="-930" y="280" />
            </Array>
          </mxGeometry>
        </mxCell>
        <mxCell id="ZeBRm6sV6HHdj7Xa7d4u-38" value="" style="endArrow=classic;html=1;rounded=0;exitX=0.5;exitY=1;exitDx=0;exitDy=0;entryX=0.5;entryY=0;entryDx=0;entryDy=0;" edge="1" parent="1" source="ZeBRm6sV6HHdj7Xa7d4u-1" target="ZeBRm6sV6HHdj7Xa7d4u-32">
          <mxGeometry width="50" height="50" relative="1" as="geometry">
            <mxPoint x="-140" y="230" as="sourcePoint" />
            <mxPoint x="-90" y="180" as="targetPoint" />
            <Array as="points">
              <mxPoint x="-70" y="150" />
              <mxPoint x="-1020" y="140" />
            </Array>
          </mxGeometry>
        </mxCell>
        <mxCell id="ZeBRm6sV6HHdj7Xa7d4u-39" value="" style="endArrow=classic;html=1;rounded=0;exitX=0.5;exitY=1;exitDx=0;exitDy=0;entryX=0.5;entryY=0;entryDx=0;entryDy=0;" edge="1" parent="1" source="ZeBRm6sV6HHdj7Xa7d4u-1" target="ZeBRm6sV6HHdj7Xa7d4u-26">
          <mxGeometry width="50" height="50" relative="1" as="geometry">
            <mxPoint x="-140" y="230" as="sourcePoint" />
            <mxPoint x="-90" y="180" as="targetPoint" />
          </mxGeometry>
        </mxCell>
        <mxCell id="ZeBRm6sV6HHdj7Xa7d4u-40" value="" style="endArrow=classic;html=1;rounded=0;exitX=0.5;exitY=1;exitDx=0;exitDy=0;entryX=0.5;entryY=0;entryDx=0;entryDy=0;" edge="1" parent="1" source="ZeBRm6sV6HHdj7Xa7d4u-1" target="ZeBRm6sV6HHdj7Xa7d4u-2">
          <mxGeometry width="50" height="50" relative="1" as="geometry">
            <mxPoint x="120" y="250" as="sourcePoint" />
            <mxPoint x="170" y="200" as="targetPoint" />
            <Array as="points">
              <mxPoint x="-70" y="150" />
              <mxPoint x="375" y="150" />
            </Array>
          </mxGeometry>
        </mxCell>
        <mxCell id="ZeBRm6sV6HHdj7Xa7d4u-41" value="" style="endArrow=classic;html=1;rounded=0;exitX=0.5;exitY=1;exitDx=0;exitDy=0;entryX=0.5;entryY=0;entryDx=0;entryDy=0;" edge="1" parent="1" source="ZeBRm6sV6HHdj7Xa7d4u-1" target="ZeBRm6sV6HHdj7Xa7d4u-9">
          <mxGeometry width="50" height="50" relative="1" as="geometry">
            <mxPoint x="50" y="230" as="sourcePoint" />
            <mxPoint x="100" y="180" as="targetPoint" />
            <Array as="points">
              <mxPoint x="-70" y="150" />
              <mxPoint x="700" y="150" />
            </Array>
          </mxGeometry>
        </mxCell>
        <mxCell id="ZeBRm6sV6HHdj7Xa7d4u-42" value="&lt;div&gt;Target too close&lt;/div&gt;&lt;div&gt;Condition&lt;/div&gt;" style="ellipse;whiteSpace=wrap;html=1;" vertex="1" parent="1">
          <mxGeometry x="-800" y="575" width="120" height="80" as="geometry" />
        </mxCell>
        <mxCell id="ZeBRm6sV6HHdj7Xa7d4u-43" value="&lt;div&gt;Ability off cooldown&lt;/div&gt;&lt;div&gt;Condition&lt;/div&gt;" style="ellipse;whiteSpace=wrap;html=1;" vertex="1" parent="1">
          <mxGeometry x="-665" y="575" width="120" height="80" as="geometry" />
        </mxCell>
        <mxCell id="ZeBRm6sV6HHdj7Xa7d4u-44" value="&lt;div&gt;Cast Dash from target&lt;/div&gt;&lt;div&gt;Node&lt;/div&gt;" style="rounded=0;whiteSpace=wrap;html=1;" vertex="1" parent="1">
          <mxGeometry x="-525" y="585" width="120" height="60" as="geometry" />
        </mxCell>
        <mxCell id="ZeBRm6sV6HHdj7Xa7d4u-45" value="Dash&lt;div&gt;Sequence&lt;/div&gt;" style="rounded=0;whiteSpace=wrap;html=1;" vertex="1" parent="1">
          <mxGeometry x="-665" y="460" width="120" height="60" as="geometry" />
        </mxCell>
        <mxCell id="ZeBRm6sV6HHdj7Xa7d4u-47" value="" style="endArrow=classic;html=1;rounded=0;exitX=0.5;exitY=1;exitDx=0;exitDy=0;entryX=0.5;entryY=0;entryDx=0;entryDy=0;" edge="1" parent="1" source="ZeBRm6sV6HHdj7Xa7d4u-45" target="ZeBRm6sV6HHdj7Xa7d4u-42">
          <mxGeometry width="50" height="50" relative="1" as="geometry">
            <mxPoint x="-520" y="550" as="sourcePoint" />
            <mxPoint x="-740" y="545" as="targetPoint" />
            <Array as="points">
              <mxPoint x="-605" y="530" />
              <mxPoint x="-740" y="530" />
            </Array>
          </mxGeometry>
        </mxCell>
        <mxCell id="ZeBRm6sV6HHdj7Xa7d4u-48" value="" style="endArrow=classic;html=1;rounded=0;exitX=0.5;exitY=1;exitDx=0;exitDy=0;entryX=0.5;entryY=0;entryDx=0;entryDy=0;" edge="1" parent="1" source="ZeBRm6sV6HHdj7Xa7d4u-45" target="ZeBRm6sV6HHdj7Xa7d4u-43">
          <mxGeometry width="50" height="50" relative="1" as="geometry">
            <mxPoint x="-560" y="560" as="sourcePoint" />
            <mxPoint x="-510" y="510" as="targetPoint" />
          </mxGeometry>
        </mxCell>
        <mxCell id="ZeBRm6sV6HHdj7Xa7d4u-49" value="" style="endArrow=classic;html=1;rounded=0;exitX=0.5;exitY=1;exitDx=0;exitDy=0;entryX=0.5;entryY=0;entryDx=0;entryDy=0;" edge="1" parent="1" source="ZeBRm6sV6HHdj7Xa7d4u-45" target="ZeBRm6sV6HHdj7Xa7d4u-44">
          <mxGeometry width="50" height="50" relative="1" as="geometry">
            <mxPoint x="-540" y="560" as="sourcePoint" />
            <mxPoint x="-490" y="510" as="targetPoint" />
            <Array as="points">
              <mxPoint x="-605" y="530" />
              <mxPoint x="-465" y="530" />
            </Array>
          </mxGeometry>
        </mxCell>
        <mxCell id="ZeBRm6sV6HHdj7Xa7d4u-50" value="" style="endArrow=classic;html=1;rounded=0;exitX=0.5;exitY=1;exitDx=0;exitDy=0;entryX=0.5;entryY=0;entryDx=0;entryDy=0;" edge="1" parent="1" source="ZeBRm6sV6HHdj7Xa7d4u-13" target="ZeBRm6sV6HHdj7Xa7d4u-45">
          <mxGeometry width="50" height="50" relative="1" as="geometry">
            <mxPoint x="-400" y="460" as="sourcePoint" />
            <mxPoint x="-350" y="410" as="targetPoint" />
            <Array as="points">
              <mxPoint y="400" />
              <mxPoint x="-605" y="400" />
            </Array>
          </mxGeometry>
        </mxCell>
      </root>
    </mxGraphModel>
  </diagram>
</mxfile>
